# xmcd
#
# Track frame offsets:
#	182
#	13147
#	25767
#	39477
#	57342
#	76267
#	91852
#	107100
#	125645
#	142030
#	156145
#	174720
#	189695
#	202717
#	217347
#	234295
#	249217
#	264025
#
# Disc length: 3793
#
# Revision: 3
# Processed by: cddbd v1.5.1PL0 Copyright (c) Steve Scherf et al.
# Submitted via: CDex 1.30Release
# Normalized: r1:TDELIM( - );r2:TSWAP
#
DISCID=ee0ecf12
DTITLE=Various Artist - Country Pleasure Disk Two
DYEAR=1900
DGENRE=Country
TTITLE0=Barbara Mandrell - Wish You Were Here
TTITLE1=John Anderson - She sure Got Away With My Heart
TTITLE2=Sylvia - Fallin' In Love
TTITLE3=Conway Twitty - Somebody's Needin' Somebody
TTITLE4=Oak Ridge Boys - Beautiful You
TTITLE5=Earl Thomas Conley - You Love's On The Line
TTITLE6=Micheal Martin Murphey - A Long Line Of Love
TTITLE7=Deborah Allen - Baby I Lied
TTITLE8=Mickey Gilley - Stand By Me
TTITLE9=Randy Travis - On The Other Hand
TTITLE10=Juice Newton - The Sweetest Thing )I've Ever Known)
TTITLE11=John Conlee - I'm Only In It For The Love
TTITLE12=Janie Fricke - Do Me With Love
TTITLE13=Con Hunley - Oh Girl
TTITLE14=Highway 101 - (Do You Love Me) Just Say Yes
TTITLE15=The Statler Brothers - My Only Love
TTITLE16=Dolly Parton - You're The Only One
TTITLE17=Hank Williams, Jr - Ain't Misbehavin'
EXTD=ID3G:   2
EXTT0=
EXTT1=
EXTT2=
EXTT3=
EXTT4=
EXTT5=
EXTT6=
EXTT7=
EXTT8=
EXTT9=
EXTT10=
EXTT11=
EXTT12=
EXTT13=
EXTT14=
EXTT15=
EXTT16=
EXTT17=
PLAYORDER=
